<?xml version="1.0" encoding="UTF-8" standalone="no"?>
<!DOCTYPE svg PUBLIC "-//W3C//DTD SVG 1.1//EN"
 "http://www.w3.org/Graphics/SVG/1.1/DTD/svg11.dtd">
<!-- Generated by graphviz version 2.38.0 (20140413.2041)
 -->
<!-- Title: g Pages: 1 -->
<svg width="248pt" height="279pt"
 viewBox="0.00 0.00 248.00 279.00" xmlns="http://www.w3.org/2000/svg" xmlns:xlink="http://www.w3.org/1999/xlink">
<g id="graph0" class="graph" transform="scale(1 1) rotate(0) translate(4 275)">
<title>g</title>
<polygon fill="white" stroke="none" points="-4,4 -4,-275 244,-275 244,4 -4,4"/>
<g id="clust1" class="cluster"><title>cluster9f89ca4c2be5</title>
<polygon fill="none" stroke="black" points="8,-8 8,-227 232,-227 232,-8 8,-8"/>
<text text-anchor="middle" x="120" y="-211.8" font-family="Times New Roman,serif" font-size="14.00">Stage: FollowOnStage</text>
</g>
<!-- FollowOn.pipeline -->
<g id="node1" class="node"><title>FollowOn.pipeline</title>
<polygon fill="none" stroke="black" points="179.5,-271 60.5,-271 60.5,-235 179.5,-235 179.5,-271"/>
<text text-anchor="middle" x="120" y="-249.3" font-family="Times New Roman,serif" font-size="14.00">FollowOn.pipeline</text>
</g>
<!-- Job: ExitStageLeft -->
<g id="node3" class="node"><title>Job: ExitStageLeft</title>
<polygon fill="none" stroke="black" points="179.5,-196 60.5,-196 60.5,-160 179.5,-160 179.5,-196"/>
<text text-anchor="middle" x="120" y="-174.3" font-family="Times New Roman,serif" font-size="14.00">Job: ExitStageLeft</text>
</g>
<!-- FollowOn.pipeline&#45;&gt;Job: ExitStageLeft -->
<g id="edge3" class="edge"><title>FollowOn.pipeline&#45;&gt;Job: ExitStageLeft</title>
<path fill="none" stroke="black" d="M120,-234.7C120,-226.245 120,-215.869 120,-206.373"/>
<polygon fill="black" stroke="black" points="123.5,-206.176 120,-196.176 116.5,-206.176 123.5,-206.176"/>
</g>
<!-- 9f89ca4c2be5 -->
<!-- DownloadPipelineArtifact -->
<g id="node4" class="node"><title>DownloadPipelineArtifact</title>
<ellipse fill="none" stroke="black" cx="120" cy="-106" rx="103.982" ry="18"/>
<text text-anchor="middle" x="120" y="-102.3" font-family="Times New Roman,serif" font-size="14.00">DownloadPipelineArtifact</text>
</g>
<!-- Job: ExitStageLeft&#45;&gt;DownloadPipelineArtifact -->
<g id="edge1" class="edge"><title>Job: ExitStageLeft&#45;&gt;DownloadPipelineArtifact</title>
<path fill="none" stroke="black" d="M120,-159.697C120,-151.983 120,-142.712 120,-134.112"/>
<polygon fill="black" stroke="black" points="123.5,-134.104 120,-124.104 116.5,-134.104 123.5,-134.104"/>
</g>
<!-- PowerShell -->
<g id="node5" class="node"><title>PowerShell</title>
<ellipse fill="none" stroke="black" cx="120" cy="-34" rx="51.9908" ry="18"/>
<text text-anchor="middle" x="120" y="-30.3" font-family="Times New Roman,serif" font-size="14.00">PowerShell</text>
</g>
<!-- DownloadPipelineArtifact&#45;&gt;PowerShell -->
<g id="edge2" class="edge"><title>DownloadPipelineArtifact&#45;&gt;PowerShell</title>
<path fill="none" stroke="black" d="M120,-87.6966C120,-79.9827 120,-70.7125 120,-62.1124"/>
<polygon fill="black" stroke="black" points="123.5,-62.1043 120,-52.1043 116.5,-62.1044 123.5,-62.1043"/>
</g>
</g>
</svg>
